# xmcd
#
# Track frame offsets: 
#        150
#        18683
#        38423
#        54920
#        74840
#        93987
#        112277
#        132751
#        151433
#        170866
#        192856
#        208288
#        228902
#        248554
#        273116
#
# Disc length: 3950 seconds
#
# Revision: 0
# Processed by: cddbd v1.4PL0 Copyright (c) Steve Scherf et al.
# Submitted via: ExactAudioCopy v0.95a3
#
DISCID=d50f6c0f
DTITLE=李纹 - 未知标题
DYEAR=1900
DGENRE=
TTITLE0=真情人
TTITLE1=爱你爱到
TTITLE2=月光爱人
TTITLE3=YOU&ME
TTITLE4=小心男人
TTITLE5=今天到永远
TTITLE6=魔镜
TTITLE7=我的快乐不为谁
TTITLE8=你问
TTITLE9=好心情
TTITLE10=颜色
TTITLE11=DI DA DI
TTITLE12=碰看爱情
TTITLE13=想你的365天
TTITLE14=当爱成碎片
EXTD=
EXTT0=
EXTT1=
EXTT2=
EXTT3=
EXTT4=
EXTT5=
EXTT6=
EXTT7=
EXTT8=
EXTT9=
EXTT10=
EXTT11=
EXTT12=
EXTT13=
EXTT14=
PLAYORDER=
